<?xml version="1.0" encoding="UTF-8"?>
<svg id="Layer_2" data-name="Layer 2" xmlns="http://www.w3.org/2000/svg" viewBox="0 0 529.17 26.55">
  <defs>
    <style>
      .cls-1 {
        fill: #fff;
      }

      .cls-2 {
        fill: #97bbd5;
      }
    </style>
  </defs>
  <path class="cls-1" d="M529.17,0v5.81c0-3.21-2.6-5.81-5.81-5.81h5.81Z"/>
  <path class="cls-1" d="M529.17,5.81v14.92c-.13.57-.62,2.25-2.23,3.58-1.45,1.2-2.98,1.43-3.58,1.49H5.82c-.6-.06-2.13-.29-3.58-1.49C.63,22.98.14,21.3,0,20.73V5.81C0,2.6,2.61,0,5.82,0h517.54c3.21,0,5.81,2.6,5.81,5.81Z"/>
  <path class="cls-1" d="M0,0h5.82C2.61,0,0,2.6,0,5.81V0Z"/>
  <path class="cls-2" d="M2.24,24.31c1.45,1.2,2.98,1.43,3.58,1.49h517.54c.6-.06,2.13-.29,3.58-1.49,1.61-1.33,2.1-3.01,2.23-3.58,0,3.22-2.6,5.82-5.81,5.82H5.82C2.61,26.55,0,23.95,0,20.73c.14.57.63,2.25,2.24,3.58Z"/>
</svg>