<?xml version="1.0" encoding="UTF-8"?>
<svg id="Layer_2" xmlns="http://www.w3.org/2000/svg" version="1.1" viewBox="0 0 529.2 53.1">
  <!-- Generator: Adobe Illustrator 29.5.1, SVG Export Plug-In . SVG Version: 2.1.0 Build 141)  -->
  <defs>
    <style>
      .st0 {
        fill: #6989a0;
        font-family: Georgia-Italic, Georgia;
        font-size: 21.3px;
        font-style: italic;
      }

      .st1 {
        fill: #fff;
      }

      .st2 {
        fill: #97bbd5;
      }
    </style>
  </defs>
  <g>
    <path class="st1" d="M.4,52.7V5.8C.4,2.9,2.8.4,5.7.4h153.4c2.3,0,4.4,1.5,5.2,3.7h0c0,.1,8,25.1,8,25.1.9,2.8,3.5,4.7,6.5,4.7h344.6c3,0,5.5,2.4,5.5,5.5v13.4H.4Z"/>
    <path class="st2" d="M159.1.7c2.2,0,4.1,1.4,4.8,3.4h0c0,0,8,25.1,8,25.1,1,3,3.7,5,6.8,5h344.6c2.8,0,5.1,2.3,5.1,5.1v13H.7V5.8C.7,3.1,3,.8,5.7.7h153.4M159.1,0H5.7C2.5,0,0,2.7,0,5.8v47.3h529.2v-13.8c0-3.2-2.6-5.8-5.8-5.8H178.8c-2.8,0-5.3-1.8-6.1-4.5l-8-25h0C163.8,1.6,161.6,0,159.1,0h0Z"/>
  </g>
  <path class="st1" d="M529.2,47v-6.9c0-3.2-2.6-5.8-5.8-5.8H178.8c-.7,0-2.2,0-3.7-1-1.9-1.1-2.7-2.9-2.9-3.4-.1-.3-.2-.6-.2-.7-1.3-4.7-3-9.3-4.4-13.9-.8-2.5-1.4-4.5-1.7-5.5-.6-1.9-1.2-3.6-1.6-5,0-.4-.5-1.9-1.9-2.9-1.3-1-2.7-1-3.1-1H5.7C2.5.8,0,3.4,0,6.6v46.5h529.2v-6.1Z"/>
  <text class="st0" transform="translate(44.1 26.8)"><tspan x="0" y="0">Projects</tspan></text>
</svg>